<?xml version="1.0" encoding="UTF-8"?><svg xmlns="http://www.w3.org/2000/svg" xmlns:xlink="http://www.w3.org/1999/xlink" fill-opacity="1" color-rendering="auto" color-interpolation="auto" text-rendering="auto" stroke="black" stroke-linecap="square" width="492" stroke-miterlimit="10" shape-rendering="auto" stroke-opacity="1" fill="black" stroke-dasharray="none" font-weight="normal" stroke-width="1" height="121" font-family="'Dialog'" font-style="normal" stroke-linejoin="miter" font-size="12px" stroke-dashoffset="0" image-rendering="auto">
  <!--Generated by ySVG 2.5-->
  <defs id="genericDefs"/>
  <g>
    <defs id="defs1">
      <clipPath clipPathUnits="userSpaceOnUse" id="clipPath1">
        <path d="M0 0 L492 0 L492 121 L0 121 L0 0 Z"/>
      </clipPath>
      <clipPath clipPathUnits="userSpaceOnUse" id="clipPath2">
        <path d="M109 289 L601 289 L601 410 L109 410 L109 289 Z"/>
      </clipPath>
    </defs>
    <g fill="white" text-rendering="geometricPrecision" shape-rendering="geometricPrecision" transform="translate(-109,-289)" stroke="white">
      <rect x="109" width="492" height="121" y="289" clip-path="url(#clipPath2)" stroke="none"/>
    </g>
    <g fill="rgb(91,130,193)" text-rendering="geometricPrecision" shape-rendering="geometricPrecision" transform="matrix(1,0,0,1,-109,-289)" stroke="rgb(91,130,193)">
      <path d="M124.2691 324.9948 Q124.2691 304.9948 144.2691 304.9948 L565.9644 304.9948 Q585.9644 304.9948 585.9644 324.9948 L585.9644 374.3442 Q585.9644 394.3442 565.9644 394.3442 L144.2691 394.3442 Q124.2691 394.3442 124.2691 374.3442 Z" stroke="none" clip-path="url(#clipPath2)"/>
    </g>
    <g stroke-linecap="butt" font-size="38px" transform="matrix(1,0,0,1,-109,-289)" fill="white" text-rendering="geometricPrecision" font-family="'Arial'" shape-rendering="geometricPrecision" stroke="white" stroke-miterlimit="1.45">
      <text x="157.6392" xml:space="preserve" y="362.8433" clip-path="url(#clipPath2)" stroke="none">Open PD2AF converter</text>
    </g>
  </g>
</svg>
